<mxfile host="app.diagrams.net" agent="Mozilla/5.0 (Macintosh; Intel Mac OS X 10_15_7) AppleWebKit/537.36 (KHTML, like Gecko) Chrome/136.0.0.0 Safari/537.36" version="26.2.14">
  <diagram id="C5RBs43oDa-KdzZeNtuy" name="Page-1">
    <mxGraphModel dx="3664" dy="733" grid="1" gridSize="10" guides="1" tooltips="1" connect="1" arrows="1" fold="1" page="1" pageScale="1" pageWidth="827" pageHeight="1169" math="0" shadow="0">
      <root>
        <mxCell id="WIyWlLk6GJQsqaUBKTNV-0" />
        <mxCell id="WIyWlLk6GJQsqaUBKTNV-1" parent="WIyWlLk6GJQsqaUBKTNV-0" />
        <mxCell id="xZQY71x421pRE-uKHZpD-10" style="edgeStyle=orthogonalEdgeStyle;rounded=0;orthogonalLoop=1;jettySize=auto;html=1;exitX=0.5;exitY=1;exitDx=0;exitDy=0;entryX=0.5;entryY=0;entryDx=0;entryDy=0;fillColor=#fad7ac;strokeColor=#b46504;strokeWidth=7;endArrow=blockThin;endFill=1;" parent="WIyWlLk6GJQsqaUBKTNV-1" source="xZQY71x421pRE-uKHZpD-8" target="xZQY71x421pRE-uKHZpD-9" edge="1">
          <mxGeometry relative="1" as="geometry" />
        </mxCell>
        <mxCell id="xZQY71x421pRE-uKHZpD-8" value="" style="rounded=1;whiteSpace=wrap;html=1;fillColor=#fad7ac;strokeColor=#b46504;strokeWidth=7;" parent="WIyWlLk6GJQsqaUBKTNV-1" vertex="1">
          <mxGeometry x="-2230" y="260" width="120" height="60" as="geometry" />
        </mxCell>
        <mxCell id="xZQY71x421pRE-uKHZpD-19" value="" style="edgeStyle=orthogonalEdgeStyle;rounded=0;orthogonalLoop=1;jettySize=auto;html=1;fillColor=#fad7ac;strokeColor=#b46504;strokeWidth=7;endArrow=blockThin;endFill=1;" parent="WIyWlLk6GJQsqaUBKTNV-1" source="xZQY71x421pRE-uKHZpD-9" target="xZQY71x421pRE-uKHZpD-17" edge="1">
          <mxGeometry relative="1" as="geometry" />
        </mxCell>
        <mxCell id="xZQY71x421pRE-uKHZpD-20" value="" style="edgeStyle=orthogonalEdgeStyle;rounded=0;orthogonalLoop=1;jettySize=auto;html=1;fillColor=#fad7ac;strokeColor=#b46504;strokeWidth=7;endArrow=blockThin;endFill=1;" parent="WIyWlLk6GJQsqaUBKTNV-1" source="xZQY71x421pRE-uKHZpD-9" target="xZQY71x421pRE-uKHZpD-18" edge="1">
          <mxGeometry relative="1" as="geometry" />
        </mxCell>
        <mxCell id="xZQY71x421pRE-uKHZpD-9" value="" style="rhombus;whiteSpace=wrap;html=1;fillColor=#fad7ac;strokeColor=#b46504;strokeWidth=7;" parent="WIyWlLk6GJQsqaUBKTNV-1" vertex="1">
          <mxGeometry x="-2210" y="450" width="80" height="80" as="geometry" />
        </mxCell>
        <mxCell id="xZQY71x421pRE-uKHZpD-11" value="" style="ellipse;whiteSpace=wrap;html=1;aspect=fixed;fillColor=#fad7ac;strokeColor=#b46504;strokeWidth=7;" parent="WIyWlLk6GJQsqaUBKTNV-1" vertex="1">
          <mxGeometry x="-1880" y="290" width="80" height="80" as="geometry" />
        </mxCell>
        <mxCell id="xZQY71x421pRE-uKHZpD-32" value="" style="edgeStyle=orthogonalEdgeStyle;rounded=0;orthogonalLoop=1;jettySize=auto;html=1;fillColor=#fad7ac;strokeColor=#b46504;strokeWidth=7;endArrow=blockThin;endFill=1;" parent="WIyWlLk6GJQsqaUBKTNV-1" target="fJnVb3r60i2aODetUhyN-0" edge="1">
          <mxGeometry relative="1" as="geometry">
            <mxPoint x="-1840" y="520" as="sourcePoint" />
            <mxPoint x="-1840" y="610" as="targetPoint" />
          </mxGeometry>
        </mxCell>
        <mxCell id="xZQY71x421pRE-uKHZpD-33" value="" style="edgeStyle=orthogonalEdgeStyle;rounded=0;orthogonalLoop=1;jettySize=auto;html=1;fillColor=#fad7ac;strokeColor=#b46504;strokeWidth=7;endArrow=blockThin;endFill=1;exitX=0.5;exitY=0;exitDx=0;exitDy=0;exitPerimeter=0;" parent="WIyWlLk6GJQsqaUBKTNV-1" source="fJnVb3r60i2aODetUhyN-1" target="xZQY71x421pRE-uKHZpD-11" edge="1">
          <mxGeometry relative="1" as="geometry">
            <mxPoint x="-1840" y="460" as="sourcePoint" />
          </mxGeometry>
        </mxCell>
        <mxCell id="xZQY71x421pRE-uKHZpD-17" value="" style="whiteSpace=wrap;html=1;aspect=fixed;fillColor=#fad7ac;strokeColor=#b46504;strokeWidth=7;" parent="WIyWlLk6GJQsqaUBKTNV-1" vertex="1">
          <mxGeometry x="-2330" y="450" width="80" height="80" as="geometry" />
        </mxCell>
        <mxCell id="xZQY71x421pRE-uKHZpD-29" style="edgeStyle=orthogonalEdgeStyle;rounded=0;orthogonalLoop=1;jettySize=auto;html=1;exitX=1;exitY=0.5;exitDx=0;exitDy=0;entryX=0;entryY=0.5;entryDx=0;entryDy=0;fillColor=#fad7ac;strokeColor=#b46504;strokeWidth=7;endArrow=blockThin;endFill=1;entryPerimeter=0;" parent="WIyWlLk6GJQsqaUBKTNV-1" source="xZQY71x421pRE-uKHZpD-18" target="fJnVb3r60i2aODetUhyN-1" edge="1">
          <mxGeometry relative="1" as="geometry">
            <mxPoint x="-1900" y="490" as="targetPoint" />
          </mxGeometry>
        </mxCell>
        <mxCell id="xZQY71x421pRE-uKHZpD-18" value="" style="whiteSpace=wrap;html=1;aspect=fixed;fillColor=#fad7ac;strokeColor=#b46504;strokeWidth=7;" parent="WIyWlLk6GJQsqaUBKTNV-1" vertex="1">
          <mxGeometry x="-2086" y="450" width="80" height="80" as="geometry" />
        </mxCell>
        <mxCell id="xZQY71x421pRE-uKHZpD-21" value="" style="shape=parallelogram;perimeter=parallelogramPerimeter;whiteSpace=wrap;html=1;fixedSize=1;fillColor=#fad7ac;strokeColor=#b46504;strokeWidth=7;" parent="WIyWlLk6GJQsqaUBKTNV-1" vertex="1">
          <mxGeometry x="-2400" y="610" width="120" height="60" as="geometry" />
        </mxCell>
        <mxCell id="xZQY71x421pRE-uKHZpD-22" value="" style="shape=parallelogram;perimeter=parallelogramPerimeter;whiteSpace=wrap;html=1;fixedSize=1;flipH=1;fillColor=#fad7ac;strokeColor=#b46504;strokeWidth=7;" parent="WIyWlLk6GJQsqaUBKTNV-1" vertex="1">
          <mxGeometry x="-2060" y="610" width="120" height="60" as="geometry" />
        </mxCell>
        <mxCell id="xZQY71x421pRE-uKHZpD-24" style="rounded=0;orthogonalLoop=1;jettySize=auto;html=1;exitX=0.25;exitY=1;exitDx=0;exitDy=0;entryX=0.5;entryY=0;entryDx=0;entryDy=0;fillColor=#fad7ac;strokeColor=#b46504;strokeWidth=7;endArrow=blockThin;endFill=1;" parent="WIyWlLk6GJQsqaUBKTNV-1" source="xZQY71x421pRE-uKHZpD-17" target="xZQY71x421pRE-uKHZpD-21" edge="1">
          <mxGeometry relative="1" as="geometry">
            <mxPoint x="-2220" y="330" as="sourcePoint" />
            <mxPoint x="-2263" y="430" as="targetPoint" />
          </mxGeometry>
        </mxCell>
        <mxCell id="xZQY71x421pRE-uKHZpD-25" style="rounded=0;orthogonalLoop=1;jettySize=auto;html=1;exitX=1;exitY=1;exitDx=0;exitDy=0;entryX=0.25;entryY=0;entryDx=0;entryDy=0;dashed=1;fillColor=#fad7ac;strokeColor=#b46504;strokeWidth=7;endArrow=blockThin;endFill=1;" parent="WIyWlLk6GJQsqaUBKTNV-1" source="xZQY71x421pRE-uKHZpD-8" target="xZQY71x421pRE-uKHZpD-18" edge="1">
          <mxGeometry relative="1" as="geometry">
            <mxPoint x="-2210" y="340" as="sourcePoint" />
            <mxPoint x="-2253" y="440" as="targetPoint" />
          </mxGeometry>
        </mxCell>
        <mxCell id="xZQY71x421pRE-uKHZpD-26" style="rounded=0;orthogonalLoop=1;jettySize=auto;html=1;exitX=0.75;exitY=1;exitDx=0;exitDy=0;entryX=0.5;entryY=0;entryDx=0;entryDy=0;fillColor=#fad7ac;strokeColor=#b46504;strokeWidth=7;endArrow=blockThin;endFill=1;" parent="WIyWlLk6GJQsqaUBKTNV-1" source="xZQY71x421pRE-uKHZpD-18" target="xZQY71x421pRE-uKHZpD-22" edge="1">
          <mxGeometry relative="1" as="geometry">
            <mxPoint x="-2200" y="350" as="sourcePoint" />
            <mxPoint x="-2243" y="450" as="targetPoint" />
          </mxGeometry>
        </mxCell>
        <mxCell id="xZQY71x421pRE-uKHZpD-27" style="rounded=0;orthogonalLoop=1;jettySize=auto;html=1;exitX=0;exitY=1;exitDx=0;exitDy=0;entryX=0.75;entryY=0;entryDx=0;entryDy=0;dashed=1;fillColor=#fad7ac;strokeColor=#b46504;strokeWidth=7;endArrow=blockThin;endFill=1;" parent="WIyWlLk6GJQsqaUBKTNV-1" source="xZQY71x421pRE-uKHZpD-8" target="xZQY71x421pRE-uKHZpD-17" edge="1">
          <mxGeometry relative="1" as="geometry" />
        </mxCell>
        <mxCell id="fJnVb3r60i2aODetUhyN-0" value="" style="rounded=1;whiteSpace=wrap;html=1;fillColor=#fad7ac;strokeColor=#b46504;strokeWidth=7;" vertex="1" parent="WIyWlLk6GJQsqaUBKTNV-1">
          <mxGeometry x="-1900" y="610" width="120" height="60" as="geometry" />
        </mxCell>
        <mxCell id="fJnVb3r60i2aODetUhyN-1" value="" style="strokeWidth=7;html=1;shape=mxgraph.flowchart.terminator;whiteSpace=wrap;fillColor=#fad7ac;strokeColor=#b46504;" vertex="1" parent="WIyWlLk6GJQsqaUBKTNV-1">
          <mxGeometry x="-1890" y="460" width="100" height="60" as="geometry" />
        </mxCell>
      </root>
    </mxGraphModel>
  </diagram>
</mxfile>
